<?xml version="1.0" encoding="UTF-8" standalone="no"?>
<svg
   width="385.00967pt"
   height="524.99371pt"
   version="1.1"
   viewBox="0 0 385.00967 524.99371"
   id="svg89"
   xmlns="http://www.w3.org/2000/svg"
   xmlns:svg="http://www.w3.org/2000/svg">
   <defs
      id="defs41" />
   <g
      id="g87"
      transform="translate(-157.40335,-17.5013)">
      <path
         d="m 420,157.5 h 17.5 V 175 H 420 Z"
         id="path43" />
      <path
         d="m 486.12,381.12 c 36.047,-36.129 56.293,-85.082 56.293,-136.12 0,-51.038 -20.246,-99.992 -56.293,-136.12 C 457.284,79.896 419.878,60.974 379.44,54.923 l 5.3906,-26.953 c 0.51562,-2.5703 -0.14844,-5.2383 -1.8125,-7.2656 -1.6602,-2.0273 -4.1445,-3.2031 -6.7656,-3.2031 h -52.5 c -2.6211,0 -5.1055,1.1758 -6.7656,3.2031 -1.6641,2.0273 -2.3281,4.6953 -1.8125,7.2656 l 5.3906,26.957 c -41.852,6.4102 -80.418,26.457 -109.71,57.027 -29.293,30.57 -47.68,69.953 -52.301,112.04 -4.625,42.086 4.7734,84.523 26.734,120.72 21.9606,36.197 55.258,64.137 94.719,79.48 v 65.801 c -11.598,0.0156 -22.719,4.6289 -30.922,12.828 -8.1992,8.2031 -12.812,19.324 -12.828,30.922 0,2.3203 0.92188,4.5469 2.5625,6.1875 1.64062,1.6406 3.8672,2.5625 6.1875,2.5625 h 210 c 2.3203,0 4.5469,-0.92188 6.1875,-2.5625 1.6406,-1.64062 2.5625,-3.8672 2.5625,-6.1875 -0.0156,-11.598 -4.6289,-22.719 -12.828,-30.922 -8.2031,-8.1992 -19.324,-12.812 -30.922,-12.828 v -65.801 c 24.797,-9.6055 47.312,-24.277 66.117,-43.078 z M 483.6981,203.8 c 8.2656,26.848 8.2656,55.559 0,82.406 l -100.09,-37.852 -8.8672,-3.3516 8.8672,-3.3516 z m -267.39,82.406 c -8.2656,-26.848 -8.2656,-55.559 0,-82.406 l 100.09,37.852 8.8672,3.3516 -8.8672,3.3516 z m 76.109,-168.73 42.539,112.48 -112.47,-42.535 v -0.004 c 13.93,-31.109 38.824,-56.004 69.934,-69.938 z m 42.539,142.57 -42.539,112.47 c -31.109,-13.934 -56.004,-38.828 -69.934,-69.938 z m 15.047,9.6875 41.207,108.96 c -26.848,8.2695 -55.566,8.2695 -82.414,0 z m 57.586,102.79 -42.539,-112.47 112.47,42.535 c -13.93,31.109 -38.824,56.004 -69.934,69.938 z m -42.539,-142.57 42.539,-112.48 v 0.004 c 31.109,13.934 56.004,38.828 69.934,69.938 z m -15.047,-9.6875 -41.207,-108.96 c 7.2305,-2.1562 14.625,-3.7227 22.109,-4.6875 l 10.52,52.602 c 0.81641,4.0898 4.4062,7.0312 8.5781,7.0312 4.1719,0 7.7617,-2.9414 8.5781,-7.0312 l 10.523,-52.613 c 7.4844,0.96875 14.875,2.543 22.105,4.6992 z m 15.578,-185.26 -15.578,77.887 -15.578,-77.887 z m -139.32,86.254 c 26.5,-26.395 60.75,-43.617 97.738,-49.156 l 3.4414,17.207 v 0.0039 c -53.598,7.6719 -99.617,42.078 -122.13,91.32 -22.516,49.242 -18.438,106.56 10.82,152.12 29.262,45.559 79.684,73.109 133.83,73.117 54.145,0.008 104.58,-27.527 133.85,-73.082 29.27,-45.551 33.363,-102.86 10.859,-152.11 -22.5,-49.246 -68.508,-83.668 -122.11,-91.355 l 3.4492,-17.238 v 0.0039 c 37.043,5.3828 71.336,22.637 97.734,49.176 24.477,24.473 41.145,55.656 47.898,89.602 6.75,33.949 3.2852,69.137 -9.957,101.11 -13.246,31.977 -35.676,59.309 -64.457,78.539 -28.777,19.23 -62.613,29.496 -97.227,29.496 -34.614,0 -68.449,-10.266 -97.227,-29.496 -28.781,-19.23 -51.211,-46.562 -64.457,-78.539 -13.242,-31.977 -16.707,-67.164 -9.957,-101.11 6.7539,-33.945 23.422,-65.129 47.898,-89.602 z m 218.49,403.75 h -189.5 c 1.8164,-5.1133 5.168,-9.543 9.5977,-12.676 4.4336,-3.1328 9.7266,-4.8164 15.152,-4.8242 h 140 c 5.4258,0.008 10.719,1.6914 15.152,4.8242 4.4297,3.1328 7.7812,7.5625 9.5977,12.676 z m -42.25,-35 h -105 v -59.938 c 34.316,9.793 70.684,9.793 105,0 z"
         id="path49" />
   </g>
</svg>